<svg width="36" height="34" viewBox="0 0 36 34" fill="none" xmlns="http://www.w3.org/2000/svg">
<path d="M9 29.7497C8.575 29.7497 8.219 29.6137 7.932 29.3417C7.645 29.0697 7.501 28.7335 7.5 28.333V25.4288C7.05 24.9566 6.6875 24.4315 6.4125 23.8535C6.1375 23.2755 6 22.6437 6 21.958V8.49967C6 6.53995 6.9625 5.10581 8.8875 4.19726C10.8125 3.2887 13.85 2.83395 18 2.83301C22.3 2.83301 25.375 3.26981 27.225 4.14342C29.075 5.01704 30 6.46912 30 8.49967V21.958C30 22.6427 29.8625 23.2746 29.5875 23.8535C29.3125 24.4325 28.95 24.9576 28.5 25.4288V28.333C28.5 28.7344 28.356 29.0711 28.068 29.3431C27.78 29.6151 27.424 29.7506 27 29.7497H25.5C25.075 29.7497 24.719 29.6137 24.432 29.3417C24.145 29.0697 24.001 28.7335 24 28.333V26.9163H12V28.333C12 28.7344 11.856 29.0711 11.568 29.3431C11.28 29.6151 10.924 29.7506 10.5 29.7497H9ZM9 14.1663H27V9.91634H9V14.1663ZM12.75 22.6663C13.375 22.6663 13.9065 22.46 14.3445 22.0473C14.7825 21.6345 15.001 21.1326 15 20.5413C15 19.9511 14.7815 19.4496 14.3445 19.0368C13.9075 18.6241 13.376 18.4173 12.75 18.4163C12.125 18.4163 11.594 18.6232 11.157 19.0368C10.72 19.4505 10.501 19.952 10.5 20.5413C10.5 21.1316 10.719 21.6336 11.157 22.0473C11.595 22.4609 12.126 22.6673 12.75 22.6663ZM23.25 22.6663C23.875 22.6663 24.4065 22.46 24.8445 22.0473C25.2825 21.6345 25.501 21.1326 25.5 20.5413C25.5 19.9511 25.2815 19.4496 24.8445 19.0368C24.4075 18.6241 23.876 18.4173 23.25 18.4163C22.625 18.4163 22.094 18.6232 21.657 19.0368C21.22 19.4505 21.001 19.952 21 20.5413C21 21.1316 21.219 21.6336 21.657 22.0473C22.095 22.4609 22.626 22.6673 23.25 22.6663Z" fill="white"/>
</svg>
