<svg width="32" height="32" viewBox="0 0 32 32" fill="none" xmlns="http://www.w3.org/2000/svg">
<path d="M16 32C11.7565 32 7.68687 30.3143 4.68629 27.3137C1.68571 24.3131 0 20.2435 0 16C0 11.7565 1.68571 7.68687 4.68629 4.68629C7.68687 1.68571 11.7565 0 16 0C20.2435 0 24.3131 1.68571 27.3137 4.68629C30.3143 7.68687 32 11.7565 32 16C32 20.2435 30.3143 24.3131 27.3137 27.3137C24.3131 30.3143 20.2435 32 16 32ZM17.694 15.71C18.8025 15.3112 19.7347 14.5341 20.3266 13.5155C20.9185 12.4969 21.132 11.3022 20.9296 10.1417C20.7272 8.98114 20.1218 7.92923 19.2201 7.17116C18.3183 6.41308 17.178 5.99746 16 5.99746C14.8219 5.99746 13.6817 6.41308 12.7799 7.17116C11.8782 7.92923 11.2728 8.98114 11.0704 10.1417C10.868 11.3022 11.0815 12.4969 11.6734 13.5155C12.2653 14.5341 13.1975 15.3112 14.306 15.71C10.942 16.522 8 19.55 8 22C8 22.79 8.29 23.99 10 23.99H22C23.71 23.99 24 22.79 24 22C24 19.552 21.06 16.52 17.694 15.71Z" fill="#356C8C"/>
</svg>
