<svg width="32" height="32" viewBox="0 0 32 32" fill="none" xmlns="http://www.w3.org/2000/svg">
<circle cx="16" cy="16" r="16" fill="#79CCC7"/>
<path d="M22 15H10V10H22M20.5 21C20.1022 21 19.7206 20.842 19.4393 20.5607C19.158 20.2794 19 19.8978 19 19.5C19 19.1022 19.158 18.7206 19.4393 18.4393C19.7206 18.158 20.1022 18 20.5 18C20.8978 18 21.2794 18.158 21.5607 18.4393C21.842 18.7206 22 19.1022 22 19.5C22 19.8978 21.842 20.2794 21.5607 20.5607C21.2794 20.842 20.8978 21 20.5 21ZM11.5 21C11.1022 21 10.7206 20.842 10.4393 20.5607C10.158 20.2794 10 19.8978 10 19.5C10 19.1022 10.158 18.7206 10.4393 18.4393C10.7206 18.158 11.1022 18 11.5 18C11.8978 18 12.2794 18.158 12.5607 18.4393C12.842 18.7206 13 19.1022 13 19.5C13 19.8978 12.842 20.2794 12.5607 20.5607C12.2794 20.842 11.8978 21 11.5 21ZM8 20C8 20.88 8.39 21.67 9 22.22V24C9 24.2652 9.10536 24.5196 9.29289 24.7071C9.48043 24.8946 9.73478 25 10 25H11C11.2652 25 11.5196 24.8946 11.7071 24.7071C11.8946 24.5196 12 24.2652 12 24V23H20V24C20 24.2652 20.1054 24.5196 20.2929 24.7071C20.4804 24.8946 20.7348 25 21 25H22C22.2652 25 22.5196 24.8946 22.7071 24.7071C22.8946 24.5196 23 24.2652 23 24V22.22C23.61 21.67 24 20.88 24 20V10C24 6.5 20.42 6 16 6C11.58 6 8 6.5 8 10V20Z" fill="white"/>
</svg>
