<svg width="36" height="34" viewBox="0 0 36 34" fill="none" xmlns="http://www.w3.org/2000/svg">
<path d="M12 5.66634C11.2044 5.66634 10.4413 5.96485 9.87868 6.49621C9.31607 7.02756 9 7.74823 9 8.49967V15.583L27 15.5306V8.49967C27 7.74823 26.6839 7.02756 26.1213 6.49621C25.5587 5.96485 24.7957 5.66634 24 5.66634H12ZM22.5 26.9163H13.5V29.7497C13.5 30.1254 13.342 30.4857 13.0607 30.7514C12.7794 31.0171 12.3978 31.1663 12 31.1663H10.5C10.1022 31.1663 9.72064 31.0171 9.43934 30.7514C9.15804 30.4857 9 30.1254 9 29.7497V26.1584C8.08748 25.6612 7.32976 24.9457 6.80311 24.084C6.27646 23.2222 5.99946 22.2447 6 21.2497V8.49967C6 6.99678 6.63214 5.55544 7.75736 4.49274C8.88258 3.43003 10.4087 2.83301 12 2.83301L24 2.83301C25.5913 2.83301 27.1174 3.43003 28.2426 4.49274C29.3679 5.55544 30 6.99678 30 8.49967V21.2497C30 23.3463 28.794 25.1781 27 26.1584V29.7497C27 30.1254 26.842 30.4857 26.5607 30.7514C26.2794 31.0171 25.8978 31.1663 25.5 31.1663H24C23.6022 31.1663 23.2206 31.0171 22.9393 30.7514C22.658 30.4857 22.5 30.1254 22.5 29.7497V26.9163ZM12 22.6663C12.3978 22.6663 12.7794 22.5171 13.0607 22.2514C13.342 21.9857 13.5 21.6254 13.5 21.2497C13.5 20.874 13.342 20.5136 13.0607 20.2479C12.7794 19.9823 12.3978 19.833 12 19.833C11.6022 19.833 11.2206 19.9823 10.9393 20.2479C10.658 20.5136 10.5 20.874 10.5 21.2497C10.5 21.6254 10.658 21.9857 10.9393 22.2514C11.2206 22.5171 11.6022 22.6663 12 22.6663ZM24 22.6663C24.3978 22.6663 24.7794 22.5171 25.0607 22.2514C25.342 21.9857 25.5 21.6254 25.5 21.2497C25.5 20.874 25.342 20.5136 25.0607 20.2479C24.7794 19.9823 24.3978 19.833 24 19.833C23.6022 19.833 23.2206 19.9823 22.9393 20.2479C22.658 20.5136 22.5 20.874 22.5 21.2497C22.5 21.6254 22.658 21.9857 22.9393 22.2514C23.2206 22.5171 23.6022 22.6663 24 22.6663ZM12 7.08301C12.3978 7.08301 12.7794 7.23226 13.0607 7.49794C13.342 7.76362 13.5 8.12395 13.5 8.49967V12.7497C13.5 13.1254 13.342 13.4857 13.0607 13.7514C12.7794 14.0171 12.3978 14.1663 12 14.1663C11.6022 14.1663 11.2206 14.0171 10.9393 13.7514C10.658 13.4857 10.5 13.1254 10.5 12.7497V8.49967C10.5 8.12395 10.658 7.76362 10.9393 7.49794C11.2206 7.23226 11.6022 7.08301 12 7.08301Z" fill="white"/>
<path d="M17.4375 17.375C17.4375 17.375 16.625 17.375 16.625 16.5625C16.625 15.75 17.4375 13.3125 21.5 13.3125C25.5625 13.3125 26.375 15.75 26.375 16.5625C26.375 17.375 25.5625 17.375 25.5625 17.375H17.4375ZM21.5 12.5C22.1465 12.5 22.7665 12.2432 23.2236 11.7861C23.6807 11.329 23.9375 10.709 23.9375 10.0625C23.9375 9.41603 23.6807 8.79605 23.2236 8.33893C22.7665 7.88181 22.1465 7.625 21.5 7.625C20.8535 7.625 20.2335 7.88181 19.7764 8.33893C19.3193 8.79605 19.0625 9.41603 19.0625 10.0625C19.0625 10.709 19.3193 11.329 19.7764 11.7861C20.2335 12.2432 20.8535 12.5 21.5 12.5Z" fill="white"/>
</svg>
